<svg width="19" height="19" viewBox="0 0 19 19" fill="none" xmlns="http://www.w3.org/2000/svg">
<path d="M7.125 16.625H11.875M9.5 2.375C6.87665 2.375 4.75 4.50165 4.75 7.125C4.75 8.08648 5.03567 8.98124 5.52676 9.72903C6.28193 10.8789 6.65919 11.4535 6.7082 11.5394C7.14422 12.3033 7.06394 12.0339 7.11882 12.9117C7.12498 13.0104 7.125 13.1598 7.125 13.4583C7.125 13.8956 7.47944 14.25 7.91667 14.25L11.0833 14.25C11.5206 14.25 11.875 13.8956 11.875 13.4583C11.875 13.1598 11.875 13.0104 11.8812 12.9117C11.936 12.0339 11.8553 12.3033 12.2913 11.5394C12.3403 11.4535 12.7182 10.8789 13.4734 9.72902C13.9645 8.98123 14.2502 8.08648 14.2502 7.125C14.2502 4.50165 12.1234 2.375 9.5 2.375Z" stroke="#0183FF" stroke-linecap="round" stroke-linejoin="round"/>
</svg>
