<svg width="19" height="19" viewBox="0 0 19 19" fill="none" xmlns="http://www.w3.org/2000/svg">
<path d="M7.125 8.70756H11.875M5.63949 14.8043L4.43302 15.7695C3.77422 16.2965 3.44466 16.5602 3.16744 16.5605C2.92635 16.5607 2.69835 16.4511 2.54795 16.2627C2.375 16.046 2.375 15.6243 2.375 14.7806V5.69938C2.375 4.81263 2.375 4.36893 2.54757 4.03023C2.69937 3.73231 2.94142 3.49027 3.23934 3.33847C3.57803 3.16589 4.02174 3.16589 4.90849 3.16589H14.0918C14.9786 3.16589 15.4213 3.16589 15.76 3.33847C16.0579 3.49027 16.3008 3.73231 16.4526 4.03023C16.625 4.3686 16.625 4.81176 16.625 5.69678V11.7187C16.625 12.6037 16.625 13.0463 16.4526 13.3846C16.3008 13.6826 16.0584 13.925 15.7605 14.0768C15.4222 14.2492 14.9791 14.2492 14.0941 14.2492H7.22164C6.89228 14.2492 6.7282 14.2492 6.57068 14.2816C6.43093 14.3102 6.29546 14.3575 6.16841 14.4224C6.02681 14.4948 5.89989 14.5963 5.64836 14.7975L5.63949 14.8043Z" stroke="#B31942" stroke-linecap="round" stroke-linejoin="round"/>
</svg>
