<svg width="15" height="15" viewBox="0 0 15 15" fill="none" xmlns="http://www.w3.org/2000/svg">
<path d="M7.1875 13.5938C3.65625 13.5938 0.78125 10.7188 0.78125 7.1875C0.78125 3.65625 3.65625 0.78125 7.1875 0.78125C10.7188 0.78125 13.5938 3.65625 13.5938 7.1875C13.5938 10.7188 10.7188 13.5938 7.1875 13.5938ZM7.1875 1.71875C4.16875 1.71875 1.71875 4.175 1.71875 7.1875C1.71875 10.2 4.16875 12.6562 7.1875 12.6562C10.2063 12.6562 12.6562 10.2 12.6562 7.1875C12.6562 4.175 10.2063 1.71875 7.1875 1.71875Z" fill="#161226"/>
<path d="M13.75 14.2188C13.6312 14.2188 13.5125 14.175 13.4187 14.0813L12.1687 12.8313C11.9875 12.65 11.9875 12.35 12.1687 12.1688C12.35 11.9875 12.65 11.9875 12.8312 12.1688L14.0812 13.4188C14.2625 13.6 14.2625 13.9 14.0812 14.0813C13.9875 14.175 13.8687 14.2188 13.75 14.2188Z" fill="#161226"/>
</svg>
