<svg width="213" height="50" viewBox="0 0 213 50" fill="none" xmlns="http://www.w3.org/2000/svg">
<path fill-rule="evenodd" clip-rule="evenodd" d="M189 0C202.255 0 213 10.7452 213 24C213 37.2548 202.255 48 189 48H75C65.3296 48 56.9951 42.2806 53.1945 34.0399C52.7386 33.0512 50.6816 33.1066 50.2843 34.1202C46.64 43.4169 37.5888 50 27 50H25C11.1929 50 0 38.8071 0 25C0 11.1929 11.1929 0 25 0H27C37.2199 0 46.0076 6.13243 49.8839 14.9183C50.3234 15.9144 52.381 15.883 52.7951 14.8761C56.386 6.14629 64.9752 0 75 0H189Z" fill="#161226"/>
</svg>
